<svg xmlns="http://www.w3.org/2000/svg" width="23.276" height="23.276" viewBox="0 0 23.276 23.276">
  <path id="bxs-dashboard-active" d="M5.793,17.431h7.759a1.293,1.293,0,0,0,1.293-1.293V5.793A1.293,1.293,0,0,0,13.552,4.5H5.793A1.293,1.293,0,0,0,4.5,5.793V16.138A1.293,1.293,0,0,0,5.793,17.431ZM4.5,26.483a1.293,1.293,0,0,0,1.293,1.293h7.759a1.293,1.293,0,0,0,1.293-1.293V21.31a1.293,1.293,0,0,0-1.293-1.293H5.793A1.293,1.293,0,0,0,4.5,21.31Zm12.931,0a1.293,1.293,0,0,0,1.293,1.293h7.759a1.293,1.293,0,0,0,1.293-1.293V17.431a1.293,1.293,0,0,0-1.293-1.293H18.724a1.293,1.293,0,0,0-1.293,1.293Zm1.293-12.931h7.759a1.293,1.293,0,0,0,1.293-1.293V5.793A1.293,1.293,0,0,0,26.483,4.5H18.724a1.293,1.293,0,0,0-1.293,1.293v6.465A1.293,1.293,0,0,0,18.724,13.552Z" transform="translate(-4.5 -4.5)" fill="#016528"/>
</svg>
