<svg id="logout-solid-active" xmlns="http://www.w3.org/2000/svg" width="25" height="24.138" viewBox="0 0 25 24.138">
  <path id="Path_205" data-name="Path 205" d="M20.517,4H6.724A1.724,1.724,0,0,0,5,5.724v20.69a1.724,1.724,0,0,0,1.724,1.724H20.517a1.724,1.724,0,0,0,1.724-1.724V21.241H14.164a.862.862,0,1,1,0-1.724h8.078V5.724A1.724,1.724,0,0,0,20.517,4Z" transform="translate(-5 -4)" fill="#016528"/>
  <path id="Path_206" data-name="Path 206" d="M27.724,17.247a.862.862,0,0,0-1.216,1.216l2.914,2.853H25V23.04h4.422l-2.914,2.983a.862.862,0,1,0,1.216,1.216l5.034-5Z" transform="translate(-7.759 -5.799)" fill="#016528"/>
</svg>
