<svg xmlns="http://www.w3.org/2000/svg" width="23.353" height="21.677" viewBox="0 0 23.353 21.677">
  <g id="users-solid-active" transform="translate(0 0)">
    <path id="Path_195" data-name="Path 195" d="M10.96,16.139h-.75a7.474,7.474,0,0,0-5.543,2.172l-.207.241v7.138H7.977V21.639l.474-.534.216-.25a9.483,9.483,0,0,1,4.06-2.466,5.681,5.681,0,0,1-1.767-2.25Z" transform="translate(-4.46 -7.402)" fill="#016528"/>
    <path id="Path_196" data-name="Path 196" d="M30.027,18.282a7.474,7.474,0,0,0-5.543-2.172,9.026,9.026,0,0,0-.94.052,5.681,5.681,0,0,1-1.724,2.112,9.4,9.4,0,0,1,4.31,2.586l.216.241.466.534V25.7h3.4V18.523Z" transform="translate(-6.855 -7.398)" fill="#016528"/>
    <path id="Path_197" data-name="Path 197" d="M10.536,13.067H10.8a5.56,5.56,0,0,1,2.681-5.422A3.526,3.526,0,1,0,10.536,13.1Z" transform="translate(-4.811 -6.011)" fill="#016528"/>
    <path id="Path_198" data-name="Path 198" d="M24.022,12.414a5.639,5.639,0,0,1,0,.595,3.526,3.526,0,0,0,.5.043h.164A3.526,3.526,0,1,0,21.47,7.725a5.629,5.629,0,0,1,2.552,4.69Z" transform="translate(-6.806 -6.005)" fill="#016528"/>
    <path id="Path_199" data-name="Path 199" d="M21.107,12.833A3.853,3.853,0,1,1,17.253,8.98,3.853,3.853,0,0,1,21.107,12.833Z" transform="translate(-5.693 -6.416)" fill="#016528"/>
    <path id="Path_200" data-name="Path 200" d="M17.095,20.3a8.353,8.353,0,0,0-6.129,2.328l-.216.241v5.457a1.353,1.353,0,0,0,1.379,1.328h9.905a1.353,1.353,0,0,0,1.379-1.328v-5.44l-.207-.259A8.259,8.259,0,0,0,17.095,20.3Z" transform="translate(-5.328 -7.976)" fill="#016528"/>
  </g>
</svg>
