<svg id="user-solid-active" xmlns="http://www.w3.org/2000/svg" width="22.414" height="25.862" viewBox="0 0 22.414 25.862">
  <path id="Path_201" data-name="Path 201" d="M27.077,23.758a14.793,14.793,0,0,0-21.741,0A1.3,1.3,0,0,0,5,24.62v5.172a1.293,1.293,0,0,0,1.293,1.276H26.121a1.293,1.293,0,0,0,1.293-1.293V24.6a1.3,1.3,0,0,0-.336-.845Z" transform="translate(-5 -5.207)" fill="#016528"/>
  <path id="Path_202" data-name="Path 202" d="M23.069,9.034A6.034,6.034,0,1,1,17.034,3a6.034,6.034,0,0,1,6.034,6.034Z" transform="translate(-5.828 -3)" fill="#016528"/>
</svg>
